<svg xmlns="http://www.w3.org/2000/svg" xmlns:v="https://svgstorm.com"
viewBox = "0 0 1600 1600"
width="1600"
height="1600">
<g fill="None" fill-opacity="0.0" stroke="#000000" stroke-opacity="0.00" stroke-width="0.3"><path d="
M 0.00 1600.00 
L 1600.00 1600.00
L 1600.00 0.00
L 0.00 0.00
L 0.00 1600.00
M 1439.00 133.00 
C 1444.44 137.34 1448.55 142.04 1453.00 147.00
C 1466.00 161.49 1472.39 172.00 1479.98 191.02 C 1487.56 210.05 1488.81 232.40 1488.00 255.00 C 1487.19 277.60 1488.37 303.63 1488.00 327.00 C 1487.63 350.37 1488.17 375.29 1488.00 399.00 C 1487.83 422.71 1488.08 447.13 1488.00 471.00 C 1487.93 494.87 1488.03 519.06 1488.00 543.00 C 1487.97 566.94 1488.02 591.03 1488.00 615.00 C 1487.98 638.97 1488.01 663.01 1488.00 687.00 C 1487.99 710.99 1488.00 735.01 1488.00 759.00 C 1488.00 782.99 1488.00 807.01 1488.00 831.00 C 1488.00 854.99 1488.01 879.02 1488.00 903.00 C 1488.00 926.98 1488.01 951.04 1488.00 975.00 C 1487.99 998.96 1488.02 1023.09 1488.00 1047.00 C 1487.98 1070.91 1488.04 1095.20 1488.00 1119.00 C 1487.96 1142.80 1488.09 1167.45 1488.00 1191.00 C 1487.92 1214.55 1488.19 1239.99 1488.00 1263.00 C 1487.81 1286.01 1488.41 1313.19 1488.00 1335.00 C 1487.59 1356.81 1490.59 1383.90 1482.68 1401.68 C 1474.77 1419.45 1472.39 1437.40 1457.00 1448.00
C 1451.28 1455.17 1446.16 1461.29 1439.00 1467.00
C 1418.26 1483.54 1402.69 1493.54 1374.99 1497.99 C 1347.29 1502.44 1311.29 1499.30 1281.00 1500.00 C 1250.71 1500.70 1216.14 1499.68 1185.00 1500.00 C 1153.86 1500.32 1121.56 1499.86 1090.00 1500.00 C 1058.44 1500.14 1025.78 1499.94 994.00 1500.00 C 962.22 1500.06 929.85 1499.98 898.00 1500.00 C 866.15 1500.02 833.83 1500.00 802.00 1500.00 C 770.17 1500.00 738.81 1500.03 707.00 1500.00 C 675.19 1499.97 642.76 1500.07 611.00 1500.00 C 579.24 1499.93 546.56 1500.15 515.00 1500.00 C 483.44 1499.85 451.16 1500.34 420.00 1500.00 C 388.84 1499.66 354.32 1500.75 324.00 1500.00 C 293.68 1499.25 257.56 1502.46 229.78 1498.22 C 202.00 1493.98 185.72 1483.52 165.00 1467.00
C 158.93 1462.16 153.83 1457.06 149.00 1451.00
C 128.95 1425.86 116.97 1404.55 116.00 1370.00 C 115.03 1335.45 116.44 1292.44 116.00 1256.00 C 115.56 1219.56 116.19 1179.31 116.00 1142.00 C 115.81 1104.69 116.08 1065.71 116.00 1028.00 C 115.92 990.29 116.03 951.92 116.00 914.00 C 115.97 876.08 115.99 836.96 116.00 799.00 C 116.01 761.04 115.96 722.86 116.00 685.00 C 116.04 647.14 115.89 608.67 116.00 571.00 C 116.11 533.33 115.75 494.26 116.00 457.00 C 116.25 419.74 115.44 379.36 116.00 343.00 C 116.56 306.64 114.76 263.37 116.00 229.00 C 117.24 194.63 129.40 172.59 150.00 148.00
C 154.65 142.45 159.25 137.59 165.00 133.00
C 185.74 116.46 201.31 106.46 229.01 102.01 C 256.71 97.56 292.71 100.70 323.00 100.00 C 353.29 99.30 387.86 100.32 419.00 100.00 C 450.14 99.68 482.44 100.14 514.00 100.00 C 545.56 99.86 578.22 100.06 610.00 100.00 C 641.78 99.94 674.15 100.02 706.00 100.00 C 737.85 99.98 770.17 100.00 802.00 100.00 C 833.83 100.00 865.20 99.97 897.00 100.00 C 928.81 100.03 961.24 99.93 993.00 100.00 C 1024.76 100.07 1057.45 99.85 1089.00 100.00 C 1120.55 100.15 1152.85 99.66 1184.00 100.00 C 1215.15 100.34 1249.68 99.25 1280.00 100.00 C 1310.32 100.75 1346.44 97.54 1374.22 101.78 C 1402.00 106.02 1418.28 116.48 1439.00 133.00 Z"/>
</g>
<g fill="None" fill-opacity="0.0" stroke="#7736FD" stroke-opacity="1.00" stroke-width="0.3"><path d="
M 165.00 133.00 
C 161.49 137.51 155.41 143.73 150.00 148.00
C 129.40 172.59 117.24 194.63 116.00 229.00 C 114.76 263.37 116.56 306.64 116.00 343.00 C 115.44 379.36 116.25 419.74 116.00 457.00 C 115.75 494.26 116.11 533.33 116.00 571.00 C 115.89 608.67 116.04 647.14 116.00 685.00 C 115.96 722.86 116.01 761.04 116.00 799.00 C 115.99 836.96 115.97 876.08 116.00 914.00 C 116.03 951.92 115.92 990.29 116.00 1028.00 C 116.08 1065.71 115.81 1104.69 116.00 1142.00 C 116.19 1179.31 115.56 1219.56 116.00 1256.00 C 116.44 1292.44 115.03 1335.45 116.00 1370.00 C 116.97 1404.55 128.95 1425.86 149.00 1451.00
C 153.71 1454.66 161.45 1462.43 165.00 1467.00
C 185.72 1483.52 202.00 1493.98 229.78 1498.22 C 257.56 1502.46 293.68 1499.25 324.00 1500.00 C 354.32 1500.75 388.84 1499.66 420.00 1500.00 C 451.16 1500.34 483.44 1499.85 515.00 1500.00 C 546.56 1500.15 579.24 1499.93 611.00 1500.00 C 642.76 1500.07 675.19 1499.97 707.00 1500.00 C 738.81 1500.03 770.17 1500.00 802.00 1500.00 C 833.83 1500.00 866.15 1500.02 898.00 1500.00 C 929.85 1499.98 962.22 1500.06 994.00 1500.00 C 1025.78 1499.94 1058.44 1500.14 1090.00 1500.00 C 1121.56 1499.86 1153.86 1500.32 1185.00 1500.00 C 1216.14 1499.68 1250.71 1500.70 1281.00 1500.00 C 1311.29 1499.30 1347.29 1502.44 1374.99 1497.99 C 1402.69 1493.54 1418.26 1483.54 1439.00 1467.00
C 1443.10 1461.73 1451.77 1451.60 1457.00 1448.00
C 1472.39 1437.40 1474.77 1419.45 1482.68 1401.68 C 1490.59 1383.90 1487.59 1356.81 1488.00 1335.00 C 1488.41 1313.19 1487.81 1286.01 1488.00 1263.00 C 1488.19 1239.99 1487.92 1214.55 1488.00 1191.00 C 1488.09 1167.45 1487.96 1142.80 1488.00 1119.00 C 1488.04 1095.20 1487.98 1070.91 1488.00 1047.00 C 1488.02 1023.09 1487.99 998.96 1488.00 975.00 C 1488.01 951.04 1488.00 926.98 1488.00 903.00 C 1488.01 879.02 1488.00 854.99 1488.00 831.00 C 1488.00 807.01 1488.00 782.99 1488.00 759.00 C 1488.00 735.01 1487.99 710.99 1488.00 687.00 C 1488.01 663.01 1487.98 638.97 1488.00 615.00 C 1488.02 591.03 1487.97 566.94 1488.00 543.00 C 1488.03 519.06 1487.93 494.87 1488.00 471.00 C 1488.08 447.13 1487.83 422.71 1488.00 399.00 C 1488.17 375.29 1487.63 350.37 1488.00 327.00 C 1488.37 303.63 1487.19 277.60 1488.00 255.00 C 1488.81 232.40 1487.56 210.05 1479.98 191.02 C 1472.39 172.00 1466.00 161.49 1453.00 147.00
C 1448.74 143.99 1442.05 136.92 1439.00 133.00
C 1418.28 116.48 1402.00 106.02 1374.22 101.78 C 1346.44 97.54 1310.32 100.75 1280.00 100.00 C 1249.68 99.25 1215.15 100.34 1184.00 100.00 C 1152.85 99.66 1120.55 100.15 1089.00 100.00 C 1057.45 99.85 1024.76 100.07 993.00 100.00 C 961.24 99.93 928.81 100.03 897.00 100.00 C 865.20 99.97 833.83 100.00 802.00 100.00 C 770.17 100.00 737.85 99.98 706.00 100.00 C 674.15 100.02 641.78 99.94 610.00 100.00 C 578.22 100.06 545.56 99.86 514.00 100.00 C 482.44 100.14 450.14 99.68 419.00 100.00 C 387.86 100.32 353.29 99.30 323.00 100.00 C 292.71 100.70 256.71 97.56 229.01 102.01 C 201.31 106.46 185.74 116.46 165.00 133.00
M 940.00 255.00 
C 994.00 255.00 1053.87 272.71 1096.75 303.25 C 1139.62 333.80 1167.15 371.39 1188.00 417.00
C 1209.03 448.29 1218.39 477.90 1228.33 514.67 C 1238.26 551.45 1241.94 599.82 1241.00 640.00 C 1240.06 680.18 1233.20 725.40 1226.07 763.07 C 1218.95 800.75 1207.60 837.42 1196.07 872.07 C 1184.54 906.73 1171.25 938.24 1156.08 970.08 C 1140.91 1001.91 1125.54 1030.82 1107.70 1059.70 C 1089.85 1088.58 1071.16 1114.41 1051.23 1141.23 C 1031.30 1168.05 1007.79 1189.17 985.00 1214.00
C 1021.30 1226.42 1053.18 1236.37 1092.67 1239.33 C 1132.16 1242.29 1169.95 1233.36 1206.00 1221.00
C 1203.04 1234.07 1197.44 1246.39 1193.00 1259.00
C 1198.93 1253.78 1211.25 1253.60 1219.02 1253.98 C 1226.80 1254.36 1232.48 1267.67 1229.02 1275.02 C 1225.57 1282.38 1225.06 1292.79 1221.08 1300.08 C 1217.09 1307.36 1215.62 1316.19 1211.08 1323.08 C 1206.53 1329.97 1204.53 1337.94 1199.08 1344.08 C 1193.64 1350.23 1189.72 1356.29 1184.25 1362.25 C 1178.77 1368.20 1173.67 1373.36 1167.25 1378.25 C 1160.84 1383.15 1155.14 1387.62 1147.77 1391.77 C 1140.40 1395.93 1132.60 1398.98 1124.00 1401.00 C 1115.40 1403.02 1105.98 1405.37 1096.78 1406.78 C 1087.58 1408.19 1075.74 1409.45 1066.00 1409.00 C 1056.26 1408.55 1045.26 1407.70 1035.98 1406.02 C 1026.69 1404.34 1016.63 1403.59 1007.93 1401.07 C 999.22 1398.56 991.27 1395.90 983.33 1392.67 C 975.39 1389.45 968.22 1386.00 960.92 1382.08 C 953.62 1378.16 946.82 1374.41 939.92 1370.08 C 933.03 1365.75 926.09 1362.15 919.25 1357.75 C 912.42 1353.34 905.94 1348.40 899.30 1343.70 C 892.66 1339.00 886.47 1334.94 879.92 1330.08 C 873.36 1325.22 867.23 1321.62 860.92 1316.08 C 854.60 1310.54 847.26 1305.71 839.31 1311.31 C 831.35 1316.90 823.38 1316.26 814.98 1319.98 C 806.57 1323.69 798.85 1325.47 789.93 1327.93 C 781.01 1330.38 772.07 1331.14 763.00 1334.00 C 753.92 1336.85 742.72 1335.59 733.00 1337.00 C 723.28 1338.41 711.03 1337.95 701.00 1338.00 C 690.97 1338.05 681.12 1335.53 671.78 1334.22 C 662.44 1332.92 652.94 1331.03 644.32 1328.68 C 635.71 1326.33 627.91 1323.79 620.31 1319.70 C 612.70 1315.60 605.79 1312.49 598.78 1308.22 C 591.77 1303.96 586.76 1298.96 580.75 1293.25 C 574.74 1287.54 570.87 1281.50 566.25 1274.75 C 561.62 1268.01 557.54 1261.52 554.22 1253.78 C 550.91 1246.04 548.84 1236.98 546.22 1228.78 C 543.60 1220.58 540.75 1209.21 542.00 1200.00 C 543.25 1190.79 544.68 1181.02 551.00 1175.00
C 546.47 1148.17 553.96 1122.88 573.25 1103.25 C 592.55 1083.62 620.17 1078.00 647.00 1078.00
C 652.66 1077.45 659.40 1077.46 665.00 1078.00
C 741.75 1078.00 805.63 1125.17 871.00 1158.00
C 872.26 1156.07 874.00 1154.09 876.00 1153.00
C 882.25 1146.75 888.80 1140.20 895.00 1134.00
C 1011.52 997.65 1072.11 824.19 1097.00 650.00
C 1096.75 635.94 1097.34 620.91 1098.00 606.00 C 1098.66 591.09 1097.66 573.44 1097.00 559.00 C 1096.34 544.56 1094.35 529.39 1092.02 515.98 C 1089.70 502.56 1086.82 490.87 1082.08 478.92 C 1077.33 466.98 1074.48 455.61 1068.23 444.77 C 1061.98 433.93 1058.22 424.48 1049.75 415.25 C 1041.27 406.02 1034.20 399.60 1023.92 393.08 C 1013.64 386.55 1005.13 380.91 992.78 377.22 C 980.42 373.53 964.89 370.87 951.00 371.00 C 937.11 371.13 917.44 370.34 904.00 372.00 C 890.56 373.66 877.01 376.84 864.93 380.93 C 852.85 385.01 842.26 388.98 831.31 394.31 C 820.35 399.63 810.80 405.68 800.77 411.77 C 790.74 417.86 781.54 424.54 772.25 431.25 C 762.96 437.96 755.40 446.10 747.25 454.25 C 739.09 462.40 731.79 469.49 723.75 477.75 C 715.72 486.01 709.04 495.13 702.25 504.25 C 695.45 513.37 688.55 522.68 682.23 532.23 C 675.91 541.78 669.06 550.27 663.25 560.25 C 657.44 570.22 651.63 580.56 645.70 590.70 C 639.76 600.83 634.15 611.28 629.08 622.08 C 624.00 632.87 617.67 643.05 613.23 654.23 C 608.78 665.41 603.81 675.87 599.22 687.22 C 594.63 698.58 590.66 710.43 586.08 722.08 C 581.50 733.72 578.83 745.93 573.70 757.70 C 568.56 769.46 567.04 782.75 563.01 795.01 C 558.98 807.26 557.68 819.50 552.74 831.74 C 547.81 843.99 548.80 859.00 545.00 872.00 C 541.21 885.01 538.53 898.01 537.02 912.02 C 535.52 926.04 532.78 940.49 532.02 955.02 C 531.27 969.56 531.27 985.41 530.00 1000.00 C 528.73 1014.59 528.81 1032.23 529.00 1047.00 C 529.19 1061.77 531.13 1077.97 532.00 1092.00 C 532.87 1106.03 537.77 1119.75 537.99 1133.01 C 538.22 1146.27 548.03 1161.68 540.69 1173.69 C 533.36 1185.71 513.05 1178.53 501.98 1177.02 C 490.91 1175.52 475.49 1171.17 465.31 1165.69 C 455.12 1160.22 446.81 1154.22 438.25 1145.75 C 429.68 1137.28 423.31 1129.33 417.08 1118.92 C 410.84 1108.52 406.71 1097.39 402.68 1085.32 C 398.64 1073.26 395.66 1060.21 393.01 1046.99 C 390.36 1033.78 388.65 1019.35 388.00 1005.00 C 387.35 990.65 386.21 972.88 387.00 958.00 C 387.79 943.12 388.11 926.68 389.00 912.00 C 389.89 897.32 391.42 882.30 395.00 870.00
C 401.68 826.20 406.68 774.65 419.33 733.33 C 431.98 692.01 444.70 651.88 461.92 613.92 C 479.15 575.97 496.91 542.67 518.75 508.75 C 540.60 474.84 561.34 447.60 588.75 417.75 C 616.17 387.91 640.87 364.10 673.70 340.70 C 706.52 317.30 738.66 297.92 777.68 282.68 C 816.70 267.44 867.81 255.00 912.00 255.00
C 920.81 254.15 931.26 254.15 940.00 255.00 Z"/>
</g>
<g fill="None" fill-opacity="0.0" stroke="#8232FE" stroke-opacity="0.42" stroke-width="0.3"><path d="
M 150.00 148.00 
C 155.41 143.73 161.49 137.51 165.00 133.00
C 159.25 137.59 154.65 142.45 150.00 148.00 Z"/>
</g>
<g fill="None" fill-opacity="0.0" stroke="#8D25FE" stroke-opacity="0.43" stroke-width="0.3"><path d="
M 1453.00 147.00 
C 1448.55 142.04 1444.44 137.34 1439.00 133.00
C 1442.05 136.92 1448.74 143.99 1453.00 147.00 Z"/>
</g>
<g fill="None" fill-opacity="0.0" stroke="#C19AFF" stroke-opacity="1.00" stroke-width="0.3"><path d="
M 912.00 255.00 
C 921.33 255.00 930.67 255.00 940.00 255.00
C 931.26 254.15 920.81 254.15 912.00 255.00 Z"/>
</g>
<g fill="None" fill-opacity="0.0" stroke="#FEFEFE" stroke-opacity="1.00" stroke-width="0.3"><path d="
M 395.00 870.00 
C 392.73 884.90 393.00 900.59 393.00 916.00
C 393.00 925.00 393.00 934.00 393.00 943.00
C 393.00 985.32 401.32 1029.31 421.77 1065.23 C 442.22 1101.15 479.61 1119.38 520.00 1118.00
C 506.36 1066.22 503.81 1004.31 506.00 950.00 C 508.18 895.69 516.76 837.88 527.98 787.98 C 539.20 738.08 553.86 691.63 571.31 646.31 C 588.75 600.98 607.55 562.50 630.92 521.92 C 654.30 481.35 678.14 450.11 709.00 415.00
C 715.61 407.27 723.32 399.57 731.00 393.00
C 762.49 366.09 788.85 344.67 827.08 328.08 C 865.30 311.49 923.71 302.35 966.00 311.00 C 1008.29 319.64 1040.20 337.38 1063.75 375.25 C 1087.31 413.11 1097.08 453.10 1102.00 499.00 C 1106.92 544.90 1103.61 603.73 1097.00 650.00
C 1072.11 824.19 1011.52 997.65 895.00 1134.00
C 889.27 1140.70 882.65 1147.32 876.00 1153.00
C 874.00 1154.09 872.26 1156.07 871.00 1158.00
C 805.63 1125.17 741.75 1078.00 665.00 1078.00
C 659.00 1078.00 653.00 1078.00 647.00 1078.00
C 620.17 1078.00 592.55 1083.62 573.25 1103.25 C 553.96 1122.88 546.47 1148.17 551.00 1175.00
C 557.11 1211.16 577.59 1237.89 610.75 1256.25 C 643.90 1274.62 693.71 1277.81 733.00 1274.00 C 772.30 1270.19 808.55 1259.21 844.00 1243.00
C 878.61 1272.98 910.33 1293.11 949.75 1317.25 C 989.16 1341.40 1049.98 1352.75 1096.07 1343.07 C 1142.17 1333.40 1174.60 1301.23 1193.00 1259.00
C 1197.44 1246.39 1203.04 1234.07 1206.00 1221.00
C 1169.95 1233.36 1132.16 1242.29 1092.67 1239.33 C 1053.18 1236.37 1021.30 1226.42 985.00 1214.00
C 965.50 1207.33 947.17 1197.50 928.00 1190.00
C 967.65 1154.72 1002.65 1121.86 1034.75 1078.75 C 1066.85 1035.64 1093.29 994.27 1118.77 944.77 C 1144.25 895.27 1164.82 845.68 1181.98 789.98 C 1199.13 734.27 1213.69 668.17 1216.00 606.00 C 1218.31 543.83 1213.07 473.48 1188.00 417.00
C 1167.15 371.39 1139.62 333.80 1096.75 303.25 C 1053.87 272.71 994.00 255.00 940.00 255.00
C 930.67 255.00 921.33 255.00 912.00 255.00
C 867.81 255.00 816.70 267.44 777.68 282.68 C 738.66 297.92 706.52 317.30 673.70 340.70 C 640.87 364.10 616.17 387.91 588.75 417.75 C 561.34 447.60 540.60 474.84 518.75 508.75 C 496.91 542.67 479.15 575.97 461.92 613.92 C 444.70 651.88 431.98 692.01 419.33 733.33 C 406.68 774.65 401.68 826.20 395.00 870.00
M 744.00 1225.00 
C 704.36 1239.81 643.03 1246.03 610.00 1213.00
C 592.99 1195.99 577.85 1166.63 595.30 1144.30 C 612.76 1121.98 649.06 1125.74 673.07 1130.93 C 697.09 1136.12 719.37 1149.04 739.23 1162.77 C 759.09 1176.50 778.64 1188.90 795.00 1206.00
C 777.83 1211.59 761.50 1220.24 744.00 1225.00 Z"/>
</g>
<g fill="None" fill-opacity="0.0" stroke="#4B209F" stroke-opacity="1.00" stroke-width="0.3"><path d="
M 731.00 393.00 
C 723.75 400.25 716.20 407.80 709.00 415.00
C 678.14 450.11 654.30 481.35 630.92 521.92 C 607.55 562.50 588.75 600.98 571.31 646.31 C 553.86 691.63 539.20 738.08 527.98 787.98 C 516.76 837.88 508.18 895.69 506.00 950.00 C 503.81 1004.31 506.36 1066.22 520.00 1118.00
C 479.61 1119.38 442.22 1101.15 421.77 1065.23 C 401.32 1029.31 393.00 985.32 393.00 943.00
C 392.18 934.51 392.18 924.42 393.00 916.00
C 393.00 900.59 392.73 884.90 395.00 870.00
C 391.42 882.30 389.89 897.32 389.00 912.00 C 388.11 926.68 387.79 943.12 387.00 958.00 C 386.21 972.88 387.35 990.65 388.00 1005.00 C 388.65 1019.35 390.36 1033.78 393.01 1046.99 C 395.66 1060.21 398.64 1073.26 402.68 1085.32 C 406.71 1097.39 410.84 1108.52 417.08 1118.92 C 423.31 1129.33 429.68 1137.28 438.25 1145.75 C 446.81 1154.22 455.12 1160.22 465.31 1165.69 C 475.49 1171.17 490.91 1175.52 501.98 1177.02 C 513.05 1178.53 533.36 1185.71 540.69 1173.69 C 548.03 1161.68 538.22 1146.27 537.99 1133.01 C 537.77 1119.75 532.87 1106.03 532.00 1092.00 C 531.13 1077.97 529.19 1061.77 529.00 1047.00 C 528.81 1032.23 528.73 1014.59 530.00 1000.00 C 531.27 985.41 531.27 969.56 532.02 955.02 C 532.78 940.49 535.52 926.04 537.02 912.02 C 538.53 898.01 541.21 885.01 545.00 872.00 C 548.80 859.00 547.81 843.99 552.74 831.74 C 557.68 819.50 558.98 807.26 563.01 795.01 C 567.04 782.75 568.56 769.46 573.70 757.70 C 578.83 745.93 581.50 733.72 586.08 722.08 C 590.66 710.43 594.63 698.58 599.22 687.22 C 603.81 675.87 608.78 665.41 613.23 654.23 C 617.67 643.05 624.00 632.87 629.08 622.08 C 634.15 611.28 639.76 600.83 645.70 590.70 C 651.63 580.56 657.44 570.22 663.25 560.25 C 669.06 550.27 675.91 541.78 682.23 532.23 C 688.55 522.68 695.45 513.37 702.25 504.25 C 709.04 495.13 715.72 486.01 723.75 477.75 C 731.79 469.49 739.09 462.40 747.25 454.25 C 755.40 446.10 762.96 437.96 772.25 431.25 C 781.54 424.54 790.74 417.86 800.77 411.77 C 810.80 405.68 820.35 399.63 831.31 394.31 C 842.26 388.98 852.85 385.01 864.93 380.93 C 877.01 376.84 890.56 373.66 904.00 372.00 C 917.44 370.34 937.11 371.13 951.00 371.00 C 964.89 370.87 980.42 373.53 992.78 377.22 C 1005.13 380.91 1013.64 386.55 1023.92 393.08 C 1034.20 399.60 1041.27 406.02 1049.75 415.25 C 1058.22 424.48 1061.98 433.93 1068.23 444.77 C 1074.48 455.61 1077.33 466.98 1082.08 478.92 C 1086.82 490.87 1089.70 502.56 1092.02 515.98 C 1094.35 529.39 1096.34 544.56 1097.00 559.00 C 1097.66 573.44 1098.66 591.09 1098.00 606.00 C 1097.34 620.91 1096.75 635.94 1097.00 650.00
C 1103.61 603.73 1106.92 544.90 1102.00 499.00 C 1097.08 453.10 1087.31 413.11 1063.75 375.25 C 1040.20 337.38 1008.29 319.64 966.00 311.00 C 923.71 302.35 865.30 311.49 827.08 328.08 C 788.85 344.67 762.49 366.09 731.00 393.00 Z"/>
</g>
<g fill="None" fill-opacity="0.0" stroke="#9985C5" stroke-opacity="1.00" stroke-width="0.3"><path d="
M 709.00 415.00 
C 716.20 407.80 723.75 400.25 731.00 393.00
C 723.32 399.57 715.61 407.27 709.00 415.00 Z"/>
</g>
<g fill="None" fill-opacity="0.0" stroke="#4C1F9F" stroke-opacity="1.00" stroke-width="0.3"><path d="
M 985.00 1214.00 
C 1007.79 1189.17 1031.30 1168.05 1051.23 1141.23 C 1071.16 1114.41 1089.85 1088.58 1107.70 1059.70 C 1125.54 1030.82 1140.91 1001.91 1156.08 970.08 C 1171.25 938.24 1184.54 906.73 1196.07 872.07 C 1207.60 837.42 1218.95 800.75 1226.07 763.07 C 1233.20 725.40 1240.06 680.18 1241.00 640.00 C 1241.94 599.82 1238.26 551.45 1228.33 514.67 C 1218.39 477.90 1209.03 448.29 1188.00 417.00
C 1213.07 473.48 1218.31 543.83 1216.00 606.00 C 1213.69 668.17 1199.13 734.27 1181.98 789.98 C 1164.82 845.68 1144.25 895.27 1118.77 944.77 C 1093.29 994.27 1066.85 1035.64 1034.75 1078.75 C 1002.65 1121.86 967.65 1154.72 928.00 1190.00
C 947.17 1197.50 965.50 1207.33 985.00 1214.00 Z"/>
</g>
<g fill="None" fill-opacity="0.0" stroke="#A096C9" stroke-opacity="1.00" stroke-width="0.3"><path d="
M 393.00 943.00 
C 393.00 934.00 393.00 925.00 393.00 916.00
C 392.18 924.42 392.18 934.51 393.00 943.00 Z"/>
</g>
<g fill="None" fill-opacity="0.0" stroke="#B8A2FF" stroke-opacity="1.00" stroke-width="0.3"><path d="
M 647.00 1078.00 
C 653.00 1078.00 659.00 1078.00 665.00 1078.00
C 659.40 1077.46 652.66 1077.45 647.00 1078.00 Z"/>
</g>
<g fill="None" fill-opacity="0.0" stroke="#45249F" stroke-opacity="1.00" stroke-width="0.3"><path d="
M 610.00 1213.00 
C 612.70 1213.44 613.41 1200.47 619.75 1197.75 C 626.09 1195.04 631.95 1189.37 640.00 1190.00 C 648.06 1190.63 659.54 1189.34 667.22 1190.78 C 674.90 1192.22 682.14 1193.48 689.07 1195.93 C 696.01 1198.38 702.11 1201.91 708.70 1204.31 C 715.28 1206.70 719.70 1213.36 726.23 1214.77 C 732.77 1216.18 737.78 1224.33 744.00 1225.00
C 761.50 1220.24 777.83 1211.59 795.00 1206.00
C 778.64 1188.90 759.09 1176.50 739.23 1162.77 C 719.37 1149.04 697.09 1136.12 673.07 1130.93 C 649.06 1125.74 612.76 1121.98 595.30 1144.30 C 577.85 1166.63 592.99 1195.99 610.00 1213.00 Z"/>
</g>
<g fill="None" fill-opacity="0.0" stroke="#B69CFF" stroke-opacity="1.00" stroke-width="0.3"><path d="
M 876.00 1153.00 
C 882.65 1147.32 889.27 1140.70 895.00 1134.00
C 888.80 1140.20 882.25 1146.75 876.00 1153.00 Z"/>
</g>
<g fill="None" fill-opacity="0.0" stroke="#45239E" stroke-opacity="1.00" stroke-width="0.3"><path d="
M 1193.00 1259.00 
C 1174.60 1301.23 1142.17 1333.40 1096.07 1343.07 C 1049.98 1352.75 989.16 1341.40 949.75 1317.25 C 910.33 1293.11 878.61 1272.98 844.00 1243.00
C 808.55 1259.21 772.30 1270.19 733.00 1274.00 C 693.71 1277.81 643.90 1274.62 610.75 1256.25 C 577.59 1237.89 557.11 1211.16 551.00 1175.00
C 544.68 1181.02 543.25 1190.79 542.00 1200.00 C 540.75 1209.21 543.60 1220.58 546.22 1228.78 C 548.84 1236.98 550.91 1246.04 554.22 1253.78 C 557.54 1261.52 561.62 1268.01 566.25 1274.75 C 570.87 1281.50 574.74 1287.54 580.75 1293.25 C 586.76 1298.96 591.77 1303.96 598.78 1308.22 C 605.79 1312.49 612.70 1315.60 620.31 1319.70 C 627.91 1323.79 635.71 1326.33 644.32 1328.68 C 652.94 1331.03 662.44 1332.92 671.78 1334.22 C 681.12 1335.53 690.97 1338.05 701.00 1338.00 C 711.03 1337.95 723.28 1338.41 733.00 1337.00 C 742.72 1335.59 753.92 1336.85 763.00 1334.00 C 772.07 1331.14 781.01 1330.38 789.93 1327.93 C 798.85 1325.47 806.57 1323.69 814.98 1319.98 C 823.38 1316.26 831.35 1316.90 839.31 1311.31 C 847.26 1305.71 854.60 1310.54 860.92 1316.08 C 867.23 1321.62 873.36 1325.22 879.92 1330.08 C 886.47 1334.94 892.66 1339.00 899.30 1343.70 C 905.94 1348.40 912.42 1353.34 919.25 1357.75 C 926.09 1362.15 933.03 1365.75 939.92 1370.08 C 946.82 1374.41 953.62 1378.16 960.92 1382.08 C 968.22 1386.00 975.39 1389.45 983.33 1392.67 C 991.27 1395.90 999.22 1398.56 1007.93 1401.07 C 1016.63 1403.59 1026.69 1404.34 1035.98 1406.02 C 1045.26 1407.70 1056.26 1408.55 1066.00 1409.00 C 1075.74 1409.45 1087.58 1408.19 1096.78 1406.78 C 1105.98 1405.37 1115.40 1403.02 1124.00 1401.00 C 1132.60 1398.98 1140.40 1395.93 1147.77 1391.77 C 1155.14 1387.62 1160.84 1383.15 1167.25 1378.25 C 1173.67 1373.36 1178.77 1368.20 1184.25 1362.25 C 1189.72 1356.29 1193.64 1350.23 1199.08 1344.08 C 1204.53 1337.94 1206.53 1329.97 1211.08 1323.08 C 1215.62 1316.19 1217.09 1307.36 1221.08 1300.08 C 1225.06 1292.79 1225.57 1282.38 1229.02 1275.02 C 1232.48 1267.67 1226.80 1254.36 1219.02 1253.98 C 1211.25 1253.60 1198.93 1253.78 1193.00 1259.00 Z"/>
</g>
<g fill="None" fill-opacity="0.0" stroke="#6E3AFE" stroke-opacity="1.00" stroke-width="0.3"><path d="
M 610.00 1213.00 
C 643.03 1246.03 704.36 1239.81 744.00 1225.00
C 737.78 1224.33 732.77 1216.18 726.23 1214.77 C 719.70 1213.36 715.28 1206.70 708.70 1204.31 C 702.11 1201.91 696.01 1198.38 689.07 1195.93 C 682.14 1193.48 674.90 1192.22 667.22 1190.78 C 659.54 1189.34 648.06 1190.63 640.00 1190.00 C 631.95 1189.37 626.09 1195.04 619.75 1197.75 C 613.41 1200.47 612.70 1213.44 610.00 1213.00 Z"/>
</g>
<g fill="None" fill-opacity="0.0" stroke="#7C35FE" stroke-opacity="0.45" stroke-width="0.3"><path d="
M 1439.00 1467.00 
C 1446.16 1461.29 1451.28 1455.17 1457.00 1448.00
C 1451.77 1451.60 1443.10 1461.73 1439.00 1467.00 Z"/>
</g>
<g fill="None" fill-opacity="0.0" stroke="#643CFE" stroke-opacity="0.42" stroke-width="0.3"><path d="
M 149.00 1451.00 
C 153.83 1457.06 158.93 1462.16 165.00 1467.00
C 161.45 1462.43 153.71 1454.66 149.00 1451.00 Z"/>
</g>
<g fill="#000000" fill-opacity="0.00" stroke="None">
<path d="
M 0.00 1600.00 
L 1600.00 1600.00
L 1600.00 0.00
L 0.00 0.00
L 0.00 1600.00
M 1439.00 133.00 
C 1444.44 137.34 1448.55 142.04 1453.00 147.00
C 1466.00 161.49 1472.39 172.00 1479.98 191.02 C 1487.56 210.05 1488.81 232.40 1488.00 255.00 C 1487.19 277.60 1488.37 303.63 1488.00 327.00 C 1487.63 350.37 1488.17 375.29 1488.00 399.00 C 1487.83 422.71 1488.08 447.13 1488.00 471.00 C 1487.93 494.87 1488.03 519.06 1488.00 543.00 C 1487.97 566.94 1488.02 591.03 1488.00 615.00 C 1487.98 638.97 1488.01 663.01 1488.00 687.00 C 1487.99 710.99 1488.00 735.01 1488.00 759.00 C 1488.00 782.99 1488.00 807.01 1488.00 831.00 C 1488.00 854.99 1488.01 879.02 1488.00 903.00 C 1488.00 926.98 1488.01 951.04 1488.00 975.00 C 1487.99 998.96 1488.02 1023.09 1488.00 1047.00 C 1487.98 1070.91 1488.04 1095.20 1488.00 1119.00 C 1487.96 1142.80 1488.09 1167.45 1488.00 1191.00 C 1487.92 1214.55 1488.19 1239.99 1488.00 1263.00 C 1487.81 1286.01 1488.41 1313.19 1488.00 1335.00 C 1487.59 1356.81 1490.59 1383.90 1482.68 1401.68 C 1474.77 1419.45 1472.39 1437.40 1457.00 1448.00
C 1451.28 1455.17 1446.16 1461.29 1439.00 1467.00
C 1418.26 1483.54 1402.69 1493.54 1374.99 1497.99 C 1347.29 1502.44 1311.29 1499.30 1281.00 1500.00 C 1250.71 1500.70 1216.14 1499.68 1185.00 1500.00 C 1153.86 1500.32 1121.56 1499.86 1090.00 1500.00 C 1058.44 1500.14 1025.78 1499.94 994.00 1500.00 C 962.22 1500.06 929.85 1499.98 898.00 1500.00 C 866.15 1500.02 833.83 1500.00 802.00 1500.00 C 770.17 1500.00 738.81 1500.03 707.00 1500.00 C 675.19 1499.97 642.76 1500.07 611.00 1500.00 C 579.24 1499.93 546.56 1500.15 515.00 1500.00 C 483.44 1499.85 451.16 1500.34 420.00 1500.00 C 388.84 1499.66 354.32 1500.75 324.00 1500.00 C 293.68 1499.25 257.56 1502.46 229.78 1498.22 C 202.00 1493.98 185.72 1483.52 165.00 1467.00
C 158.93 1462.16 153.83 1457.06 149.00 1451.00
C 128.95 1425.86 116.97 1404.55 116.00 1370.00 C 115.03 1335.45 116.44 1292.44 116.00 1256.00 C 115.56 1219.56 116.19 1179.31 116.00 1142.00 C 115.81 1104.69 116.08 1065.71 116.00 1028.00 C 115.92 990.29 116.03 951.92 116.00 914.00 C 115.97 876.08 115.99 836.96 116.00 799.00 C 116.01 761.04 115.96 722.86 116.00 685.00 C 116.04 647.14 115.89 608.67 116.00 571.00 C 116.11 533.33 115.75 494.26 116.00 457.00 C 116.25 419.74 115.44 379.36 116.00 343.00 C 116.56 306.64 114.76 263.37 116.00 229.00 C 117.24 194.63 129.40 172.59 150.00 148.00
C 154.65 142.45 159.25 137.59 165.00 133.00
C 185.74 116.46 201.31 106.46 229.01 102.01 C 256.71 97.56 292.71 100.70 323.00 100.00 C 353.29 99.30 387.86 100.32 419.00 100.00 C 450.14 99.68 482.44 100.14 514.00 100.00 C 545.56 99.86 578.22 100.06 610.00 100.00 C 641.78 99.94 674.15 100.02 706.00 100.00 C 737.85 99.98 770.17 100.00 802.00 100.00 C 833.83 100.00 865.20 99.97 897.00 100.00 C 928.81 100.03 961.24 99.93 993.00 100.00 C 1024.76 100.07 1057.45 99.85 1089.00 100.00 C 1120.55 100.15 1152.85 99.66 1184.00 100.00 C 1215.15 100.34 1249.68 99.25 1280.00 100.00 C 1310.32 100.75 1346.44 97.54 1374.22 101.78 C 1402.00 106.02 1418.28 116.48 1439.00 133.00 Z"/>
</g>
<g fill="#7736FD" fill-opacity="1.00" stroke="None">
<path d="
M 165.00 133.00 
C 161.49 137.51 155.41 143.73 150.00 148.00
C 129.40 172.59 117.24 194.63 116.00 229.00 C 114.76 263.37 116.56 306.64 116.00 343.00 C 115.44 379.36 116.25 419.74 116.00 457.00 C 115.75 494.26 116.11 533.33 116.00 571.00 C 115.89 608.67 116.04 647.14 116.00 685.00 C 115.96 722.86 116.01 761.04 116.00 799.00 C 115.99 836.96 115.97 876.08 116.00 914.00 C 116.03 951.92 115.92 990.29 116.00 1028.00 C 116.08 1065.71 115.81 1104.69 116.00 1142.00 C 116.19 1179.31 115.56 1219.56 116.00 1256.00 C 116.44 1292.44 115.03 1335.45 116.00 1370.00 C 116.97 1404.55 128.95 1425.86 149.00 1451.00
C 153.71 1454.66 161.45 1462.43 165.00 1467.00
C 185.72 1483.52 202.00 1493.98 229.78 1498.22 C 257.56 1502.46 293.68 1499.25 324.00 1500.00 C 354.32 1500.75 388.84 1499.66 420.00 1500.00 C 451.16 1500.34 483.44 1499.85 515.00 1500.00 C 546.56 1500.15 579.24 1499.93 611.00 1500.00 C 642.76 1500.07 675.19 1499.97 707.00 1500.00 C 738.81 1500.03 770.17 1500.00 802.00 1500.00 C 833.83 1500.00 866.15 1500.02 898.00 1500.00 C 929.85 1499.98 962.22 1500.06 994.00 1500.00 C 1025.78 1499.94 1058.44 1500.14 1090.00 1500.00 C 1121.56 1499.86 1153.86 1500.32 1185.00 1500.00 C 1216.14 1499.68 1250.71 1500.70 1281.00 1500.00 C 1311.29 1499.30 1347.29 1502.44 1374.99 1497.99 C 1402.69 1493.54 1418.26 1483.54 1439.00 1467.00
C 1443.10 1461.73 1451.77 1451.60 1457.00 1448.00
C 1472.39 1437.40 1474.77 1419.45 1482.68 1401.68 C 1490.59 1383.90 1487.59 1356.81 1488.00 1335.00 C 1488.41 1313.19 1487.81 1286.01 1488.00 1263.00 C 1488.19 1239.99 1487.92 1214.55 1488.00 1191.00 C 1488.09 1167.45 1487.96 1142.80 1488.00 1119.00 C 1488.04 1095.20 1487.98 1070.91 1488.00 1047.00 C 1488.02 1023.09 1487.99 998.96 1488.00 975.00 C 1488.01 951.04 1488.00 926.98 1488.00 903.00 C 1488.01 879.02 1488.00 854.99 1488.00 831.00 C 1488.00 807.01 1488.00 782.99 1488.00 759.00 C 1488.00 735.01 1487.99 710.99 1488.00 687.00 C 1488.01 663.01 1487.98 638.97 1488.00 615.00 C 1488.02 591.03 1487.97 566.94 1488.00 543.00 C 1488.03 519.06 1487.93 494.87 1488.00 471.00 C 1488.08 447.13 1487.83 422.71 1488.00 399.00 C 1488.17 375.29 1487.63 350.37 1488.00 327.00 C 1488.37 303.63 1487.19 277.60 1488.00 255.00 C 1488.81 232.40 1487.56 210.05 1479.98 191.02 C 1472.39 172.00 1466.00 161.49 1453.00 147.00
C 1448.74 143.99 1442.05 136.92 1439.00 133.00
C 1418.28 116.48 1402.00 106.02 1374.22 101.78 C 1346.44 97.54 1310.32 100.75 1280.00 100.00 C 1249.68 99.25 1215.15 100.34 1184.00 100.00 C 1152.85 99.66 1120.55 100.15 1089.00 100.00 C 1057.45 99.85 1024.76 100.07 993.00 100.00 C 961.24 99.93 928.81 100.03 897.00 100.00 C 865.20 99.97 833.83 100.00 802.00 100.00 C 770.17 100.00 737.85 99.98 706.00 100.00 C 674.15 100.02 641.78 99.94 610.00 100.00 C 578.22 100.06 545.56 99.86 514.00 100.00 C 482.44 100.14 450.14 99.68 419.00 100.00 C 387.86 100.32 353.29 99.30 323.00 100.00 C 292.71 100.70 256.71 97.56 229.01 102.01 C 201.31 106.46 185.74 116.46 165.00 133.00
M 940.00 255.00 
C 994.00 255.00 1053.87 272.71 1096.75 303.25 C 1139.62 333.80 1167.15 371.39 1188.00 417.00
C 1209.03 448.29 1218.39 477.90 1228.33 514.67 C 1238.26 551.45 1241.94 599.82 1241.00 640.00 C 1240.06 680.18 1233.20 725.40 1226.07 763.07 C 1218.95 800.75 1207.60 837.42 1196.07 872.07 C 1184.54 906.73 1171.25 938.24 1156.08 970.08 C 1140.91 1001.91 1125.54 1030.82 1107.70 1059.70 C 1089.85 1088.58 1071.16 1114.41 1051.23 1141.23 C 1031.30 1168.05 1007.79 1189.17 985.00 1214.00
C 1021.30 1226.42 1053.18 1236.37 1092.67 1239.33 C 1132.16 1242.29 1169.95 1233.36 1206.00 1221.00
C 1203.04 1234.07 1197.44 1246.39 1193.00 1259.00
C 1198.93 1253.78 1211.25 1253.60 1219.02 1253.98 C 1226.80 1254.36 1232.48 1267.67 1229.02 1275.02 C 1225.57 1282.38 1225.06 1292.79 1221.08 1300.08 C 1217.09 1307.36 1215.62 1316.19 1211.08 1323.08 C 1206.53 1329.97 1204.53 1337.94 1199.08 1344.08 C 1193.64 1350.23 1189.72 1356.29 1184.25 1362.25 C 1178.77 1368.20 1173.67 1373.36 1167.25 1378.25 C 1160.84 1383.15 1155.14 1387.62 1147.77 1391.77 C 1140.40 1395.93 1132.60 1398.98 1124.00 1401.00 C 1115.40 1403.02 1105.98 1405.37 1096.78 1406.78 C 1087.58 1408.19 1075.74 1409.45 1066.00 1409.00 C 1056.26 1408.55 1045.26 1407.70 1035.98 1406.02 C 1026.69 1404.34 1016.63 1403.59 1007.93 1401.07 C 999.22 1398.56 991.27 1395.90 983.33 1392.67 C 975.39 1389.45 968.22 1386.00 960.92 1382.08 C 953.62 1378.16 946.82 1374.41 939.92 1370.08 C 933.03 1365.75 926.09 1362.15 919.25 1357.75 C 912.42 1353.34 905.94 1348.40 899.30 1343.70 C 892.66 1339.00 886.47 1334.94 879.92 1330.08 C 873.36 1325.22 867.23 1321.62 860.92 1316.08 C 854.60 1310.54 847.26 1305.71 839.31 1311.31 C 831.35 1316.90 823.38 1316.26 814.98 1319.98 C 806.57 1323.69 798.85 1325.47 789.93 1327.93 C 781.01 1330.38 772.07 1331.14 763.00 1334.00 C 753.92 1336.85 742.72 1335.59 733.00 1337.00 C 723.28 1338.41 711.03 1337.95 701.00 1338.00 C 690.97 1338.05 681.12 1335.53 671.78 1334.22 C 662.44 1332.92 652.94 1331.03 644.32 1328.68 C 635.71 1326.33 627.91 1323.79 620.31 1319.70 C 612.70 1315.60 605.79 1312.49 598.78 1308.22 C 591.77 1303.96 586.76 1298.96 580.75 1293.25 C 574.74 1287.54 570.87 1281.50 566.25 1274.75 C 561.62 1268.01 557.54 1261.52 554.22 1253.78 C 550.91 1246.04 548.84 1236.98 546.22 1228.78 C 543.60 1220.58 540.75 1209.21 542.00 1200.00 C 543.25 1190.79 544.68 1181.02 551.00 1175.00
C 546.47 1148.17 553.96 1122.88 573.25 1103.25 C 592.55 1083.62 620.17 1078.00 647.00 1078.00
C 652.66 1077.45 659.40 1077.46 665.00 1078.00
C 741.75 1078.00 805.63 1125.17 871.00 1158.00
C 872.26 1156.07 874.00 1154.09 876.00 1153.00
C 882.25 1146.75 888.80 1140.20 895.00 1134.00
C 1011.52 997.65 1072.11 824.19 1097.00 650.00
C 1096.75 635.94 1097.34 620.91 1098.00 606.00 C 1098.66 591.09 1097.66 573.44 1097.00 559.00 C 1096.34 544.56 1094.35 529.39 1092.02 515.98 C 1089.70 502.56 1086.82 490.87 1082.08 478.92 C 1077.33 466.98 1074.48 455.61 1068.23 444.77 C 1061.98 433.93 1058.22 424.48 1049.75 415.25 C 1041.27 406.02 1034.20 399.60 1023.92 393.08 C 1013.64 386.55 1005.13 380.91 992.78 377.22 C 980.42 373.53 964.89 370.87 951.00 371.00 C 937.11 371.13 917.44 370.34 904.00 372.00 C 890.56 373.66 877.01 376.84 864.93 380.93 C 852.85 385.01 842.26 388.98 831.31 394.31 C 820.35 399.63 810.80 405.68 800.77 411.77 C 790.74 417.86 781.54 424.54 772.25 431.25 C 762.96 437.96 755.40 446.10 747.25 454.25 C 739.09 462.40 731.79 469.49 723.75 477.75 C 715.72 486.01 709.04 495.13 702.25 504.25 C 695.45 513.37 688.55 522.68 682.23 532.23 C 675.91 541.78 669.06 550.27 663.25 560.25 C 657.44 570.22 651.63 580.56 645.70 590.70 C 639.76 600.83 634.15 611.28 629.08 622.08 C 624.00 632.87 617.67 643.05 613.23 654.23 C 608.78 665.41 603.81 675.87 599.22 687.22 C 594.63 698.58 590.66 710.43 586.08 722.08 C 581.50 733.72 578.83 745.93 573.70 757.70 C 568.56 769.46 567.04 782.75 563.01 795.01 C 558.98 807.26 557.68 819.50 552.74 831.74 C 547.81 843.99 548.80 859.00 545.00 872.00 C 541.21 885.01 538.53 898.01 537.02 912.02 C 535.52 926.04 532.78 940.49 532.02 955.02 C 531.27 969.56 531.27 985.41 530.00 1000.00 C 528.73 1014.59 528.81 1032.23 529.00 1047.00 C 529.19 1061.77 531.13 1077.97 532.00 1092.00 C 532.87 1106.03 537.77 1119.75 537.99 1133.01 C 538.22 1146.27 548.03 1161.68 540.69 1173.69 C 533.36 1185.71 513.05 1178.53 501.98 1177.02 C 490.91 1175.52 475.49 1171.17 465.31 1165.69 C 455.12 1160.22 446.81 1154.22 438.25 1145.75 C 429.68 1137.28 423.31 1129.33 417.08 1118.92 C 410.84 1108.52 406.71 1097.39 402.68 1085.32 C 398.64 1073.26 395.66 1060.21 393.01 1046.99 C 390.36 1033.78 388.65 1019.35 388.00 1005.00 C 387.35 990.65 386.21 972.88 387.00 958.00 C 387.79 943.12 388.11 926.68 389.00 912.00 C 389.89 897.32 391.42 882.30 395.00 870.00
C 401.68 826.20 406.68 774.65 419.33 733.33 C 431.98 692.01 444.70 651.88 461.92 613.92 C 479.15 575.97 496.91 542.67 518.75 508.75 C 540.60 474.84 561.34 447.60 588.75 417.75 C 616.17 387.91 640.87 364.10 673.70 340.70 C 706.52 317.30 738.66 297.92 777.68 282.68 C 816.70 267.44 867.81 255.00 912.00 255.00
C 920.81 254.15 931.26 254.15 940.00 255.00 Z"/>
</g>
<g fill="#8232FE" fill-opacity="0.42" stroke="None">
<path d="
M 150.00 148.00 
C 155.41 143.73 161.49 137.51 165.00 133.00
C 159.25 137.59 154.65 142.45 150.00 148.00 Z"/>
</g>
<g fill="#8D25FE" fill-opacity="0.43" stroke="None">
<path d="
M 1453.00 147.00 
C 1448.55 142.04 1444.44 137.34 1439.00 133.00
C 1442.05 136.92 1448.74 143.99 1453.00 147.00 Z"/>
</g>
<g fill="#C19AFF" fill-opacity="1.00" stroke="None">
<path d="
M 912.00 255.00 
C 921.33 255.00 930.67 255.00 940.00 255.00
C 931.26 254.15 920.81 254.15 912.00 255.00 Z"/>
</g>
<g fill="#FEFEFE" fill-opacity="1.00" stroke="None">
<path d="
M 395.00 870.00 
C 392.73 884.90 393.00 900.59 393.00 916.00
C 393.00 925.00 393.00 934.00 393.00 943.00
C 393.00 985.32 401.32 1029.31 421.77 1065.23 C 442.22 1101.15 479.61 1119.38 520.00 1118.00
C 506.36 1066.22 503.81 1004.31 506.00 950.00 C 508.18 895.69 516.76 837.88 527.98 787.98 C 539.20 738.08 553.86 691.63 571.31 646.31 C 588.75 600.98 607.55 562.50 630.92 521.92 C 654.30 481.35 678.14 450.11 709.00 415.00
C 715.61 407.27 723.32 399.57 731.00 393.00
C 762.49 366.09 788.85 344.67 827.08 328.08 C 865.30 311.49 923.71 302.35 966.00 311.00 C 1008.29 319.64 1040.20 337.38 1063.75 375.25 C 1087.31 413.11 1097.08 453.10 1102.00 499.00 C 1106.92 544.90 1103.61 603.73 1097.00 650.00
C 1072.11 824.19 1011.52 997.65 895.00 1134.00
C 889.27 1140.70 882.65 1147.32 876.00 1153.00
C 874.00 1154.09 872.26 1156.07 871.00 1158.00
C 805.63 1125.17 741.75 1078.00 665.00 1078.00
C 659.00 1078.00 653.00 1078.00 647.00 1078.00
C 620.17 1078.00 592.55 1083.62 573.25 1103.25 C 553.96 1122.88 546.47 1148.17 551.00 1175.00
C 557.11 1211.16 577.59 1237.89 610.75 1256.25 C 643.90 1274.62 693.71 1277.81 733.00 1274.00 C 772.30 1270.19 808.55 1259.21 844.00 1243.00
C 878.61 1272.98 910.33 1293.11 949.75 1317.25 C 989.16 1341.40 1049.98 1352.75 1096.07 1343.07 C 1142.17 1333.40 1174.60 1301.23 1193.00 1259.00
C 1197.44 1246.39 1203.04 1234.07 1206.00 1221.00
C 1169.95 1233.36 1132.16 1242.29 1092.67 1239.33 C 1053.18 1236.37 1021.30 1226.42 985.00 1214.00
C 965.50 1207.33 947.17 1197.50 928.00 1190.00
C 967.65 1154.72 1002.65 1121.86 1034.75 1078.75 C 1066.85 1035.64 1093.29 994.27 1118.77 944.77 C 1144.25 895.27 1164.82 845.68 1181.98 789.98 C 1199.13 734.27 1213.69 668.17 1216.00 606.00 C 1218.31 543.83 1213.07 473.48 1188.00 417.00
C 1167.15 371.39 1139.62 333.80 1096.75 303.25 C 1053.87 272.71 994.00 255.00 940.00 255.00
C 930.67 255.00 921.33 255.00 912.00 255.00
C 867.81 255.00 816.70 267.44 777.68 282.68 C 738.66 297.92 706.52 317.30 673.70 340.70 C 640.87 364.10 616.17 387.91 588.75 417.75 C 561.34 447.60 540.60 474.84 518.75 508.75 C 496.91 542.67 479.15 575.97 461.92 613.92 C 444.70 651.88 431.98 692.01 419.33 733.33 C 406.68 774.65 401.68 826.20 395.00 870.00
M 744.00 1225.00 
C 704.36 1239.81 643.03 1246.03 610.00 1213.00
C 592.99 1195.99 577.85 1166.63 595.30 1144.30 C 612.76 1121.98 649.06 1125.74 673.07 1130.93 C 697.09 1136.12 719.37 1149.04 739.23 1162.77 C 759.09 1176.50 778.64 1188.90 795.00 1206.00
C 777.83 1211.59 761.50 1220.24 744.00 1225.00 Z"/>
</g>
<g fill="#4B209F" fill-opacity="1.00" stroke="None">
<path d="
M 731.00 393.00 
C 723.75 400.25 716.20 407.80 709.00 415.00
C 678.14 450.11 654.30 481.35 630.92 521.92 C 607.55 562.50 588.75 600.98 571.31 646.31 C 553.86 691.63 539.20 738.08 527.98 787.98 C 516.76 837.88 508.18 895.69 506.00 950.00 C 503.81 1004.31 506.36 1066.22 520.00 1118.00
C 479.61 1119.38 442.22 1101.15 421.77 1065.23 C 401.32 1029.31 393.00 985.32 393.00 943.00
C 392.18 934.51 392.18 924.42 393.00 916.00
C 393.00 900.59 392.73 884.90 395.00 870.00
C 391.42 882.30 389.89 897.32 389.00 912.00 C 388.11 926.68 387.79 943.12 387.00 958.00 C 386.21 972.88 387.35 990.65 388.00 1005.00 C 388.65 1019.35 390.36 1033.78 393.01 1046.99 C 395.66 1060.21 398.64 1073.26 402.68 1085.32 C 406.71 1097.39 410.84 1108.52 417.08 1118.92 C 423.31 1129.33 429.68 1137.28 438.25 1145.75 C 446.81 1154.22 455.12 1160.22 465.31 1165.69 C 475.49 1171.17 490.91 1175.52 501.98 1177.02 C 513.05 1178.53 533.36 1185.71 540.69 1173.69 C 548.03 1161.68 538.22 1146.27 537.99 1133.01 C 537.77 1119.75 532.87 1106.03 532.00 1092.00 C 531.13 1077.97 529.19 1061.77 529.00 1047.00 C 528.81 1032.23 528.73 1014.59 530.00 1000.00 C 531.27 985.41 531.27 969.56 532.02 955.02 C 532.78 940.49 535.52 926.04 537.02 912.02 C 538.53 898.01 541.21 885.01 545.00 872.00 C 548.80 859.00 547.81 843.99 552.74 831.74 C 557.68 819.50 558.98 807.26 563.01 795.01 C 567.04 782.75 568.56 769.46 573.70 757.70 C 578.83 745.93 581.50 733.72 586.08 722.08 C 590.66 710.43 594.63 698.58 599.22 687.22 C 603.81 675.87 608.78 665.41 613.23 654.23 C 617.67 643.05 624.00 632.87 629.08 622.08 C 634.15 611.28 639.76 600.83 645.70 590.70 C 651.63 580.56 657.44 570.22 663.25 560.25 C 669.06 550.27 675.91 541.78 682.23 532.23 C 688.55 522.68 695.45 513.37 702.25 504.25 C 709.04 495.13 715.72 486.01 723.75 477.75 C 731.79 469.49 739.09 462.40 747.25 454.25 C 755.40 446.10 762.96 437.96 772.25 431.25 C 781.54 424.54 790.74 417.86 800.77 411.77 C 810.80 405.68 820.35 399.63 831.31 394.31 C 842.26 388.98 852.85 385.01 864.93 380.93 C 877.01 376.84 890.56 373.66 904.00 372.00 C 917.44 370.34 937.11 371.13 951.00 371.00 C 964.89 370.87 980.42 373.53 992.78 377.22 C 1005.13 380.91 1013.64 386.55 1023.92 393.08 C 1034.20 399.60 1041.27 406.02 1049.75 415.25 C 1058.22 424.48 1061.98 433.93 1068.23 444.77 C 1074.48 455.61 1077.33 466.98 1082.08 478.92 C 1086.82 490.87 1089.70 502.56 1092.02 515.98 C 1094.35 529.39 1096.34 544.56 1097.00 559.00 C 1097.66 573.44 1098.66 591.09 1098.00 606.00 C 1097.34 620.91 1096.75 635.94 1097.00 650.00
C 1103.61 603.73 1106.92 544.90 1102.00 499.00 C 1097.08 453.10 1087.31 413.11 1063.75 375.25 C 1040.20 337.38 1008.29 319.64 966.00 311.00 C 923.71 302.35 865.30 311.49 827.08 328.08 C 788.85 344.67 762.49 366.09 731.00 393.00 Z"/>
</g>
<g fill="#9985C5" fill-opacity="1.00" stroke="None">
<path d="
M 709.00 415.00 
C 716.20 407.80 723.75 400.25 731.00 393.00
C 723.32 399.57 715.61 407.27 709.00 415.00 Z"/>
</g>
<g fill="#4C1F9F" fill-opacity="1.00" stroke="None">
<path d="
M 985.00 1214.00 
C 1007.79 1189.17 1031.30 1168.05 1051.23 1141.23 C 1071.16 1114.41 1089.85 1088.58 1107.70 1059.70 C 1125.54 1030.82 1140.91 1001.91 1156.08 970.08 C 1171.25 938.24 1184.54 906.73 1196.07 872.07 C 1207.60 837.42 1218.95 800.75 1226.07 763.07 C 1233.20 725.40 1240.06 680.18 1241.00 640.00 C 1241.94 599.82 1238.26 551.45 1228.33 514.67 C 1218.39 477.90 1209.03 448.29 1188.00 417.00
C 1213.07 473.48 1218.31 543.83 1216.00 606.00 C 1213.69 668.17 1199.13 734.27 1181.98 789.98 C 1164.82 845.68 1144.25 895.27 1118.77 944.77 C 1093.29 994.27 1066.85 1035.64 1034.75 1078.75 C 1002.65 1121.86 967.65 1154.72 928.00 1190.00
C 947.17 1197.50 965.50 1207.33 985.00 1214.00 Z"/>
</g>
<g fill="#A096C9" fill-opacity="1.00" stroke="None">
<path d="
M 393.00 943.00 
C 393.00 934.00 393.00 925.00 393.00 916.00
C 392.18 924.42 392.18 934.51 393.00 943.00 Z"/>
</g>
<g fill="#B8A2FF" fill-opacity="1.00" stroke="None">
<path d="
M 647.00 1078.00 
C 653.00 1078.00 659.00 1078.00 665.00 1078.00
C 659.40 1077.46 652.66 1077.45 647.00 1078.00 Z"/>
</g>
<g fill="#45249F" fill-opacity="1.00" stroke="None">
<path d="
M 610.00 1213.00 
C 612.70 1213.44 613.41 1200.47 619.75 1197.75 C 626.09 1195.04 631.95 1189.37 640.00 1190.00 C 648.06 1190.63 659.54 1189.34 667.22 1190.78 C 674.90 1192.22 682.14 1193.48 689.07 1195.93 C 696.01 1198.38 702.11 1201.91 708.70 1204.31 C 715.28 1206.70 719.70 1213.36 726.23 1214.77 C 732.77 1216.18 737.78 1224.33 744.00 1225.00
C 761.50 1220.24 777.83 1211.59 795.00 1206.00
C 778.64 1188.90 759.09 1176.50 739.23 1162.77 C 719.37 1149.04 697.09 1136.12 673.07 1130.93 C 649.06 1125.74 612.76 1121.98 595.30 1144.30 C 577.85 1166.63 592.99 1195.99 610.00 1213.00 Z"/>
</g>
<g fill="#B69CFF" fill-opacity="1.00" stroke="None">
<path d="
M 876.00 1153.00 
C 882.65 1147.32 889.27 1140.70 895.00 1134.00
C 888.80 1140.20 882.25 1146.75 876.00 1153.00 Z"/>
</g>
<g fill="#45239E" fill-opacity="1.00" stroke="None">
<path d="
M 1193.00 1259.00 
C 1174.60 1301.23 1142.17 1333.40 1096.07 1343.07 C 1049.98 1352.75 989.16 1341.40 949.75 1317.25 C 910.33 1293.11 878.61 1272.98 844.00 1243.00
C 808.55 1259.21 772.30 1270.19 733.00 1274.00 C 693.71 1277.81 643.90 1274.62 610.75 1256.25 C 577.59 1237.89 557.11 1211.16 551.00 1175.00
C 544.68 1181.02 543.25 1190.79 542.00 1200.00 C 540.75 1209.21 543.60 1220.58 546.22 1228.78 C 548.84 1236.98 550.91 1246.04 554.22 1253.78 C 557.54 1261.52 561.62 1268.01 566.25 1274.75 C 570.87 1281.50 574.74 1287.54 580.75 1293.25 C 586.76 1298.96 591.77 1303.96 598.78 1308.22 C 605.79 1312.49 612.70 1315.60 620.31 1319.70 C 627.91 1323.79 635.71 1326.33 644.32 1328.68 C 652.94 1331.03 662.44 1332.92 671.78 1334.22 C 681.12 1335.53 690.97 1338.05 701.00 1338.00 C 711.03 1337.95 723.28 1338.41 733.00 1337.00 C 742.72 1335.59 753.92 1336.85 763.00 1334.00 C 772.07 1331.14 781.01 1330.38 789.93 1327.93 C 798.85 1325.47 806.57 1323.69 814.98 1319.98 C 823.38 1316.26 831.35 1316.90 839.31 1311.31 C 847.26 1305.71 854.60 1310.54 860.92 1316.08 C 867.23 1321.62 873.36 1325.22 879.92 1330.08 C 886.47 1334.94 892.66 1339.00 899.30 1343.70 C 905.94 1348.40 912.42 1353.34 919.25 1357.75 C 926.09 1362.15 933.03 1365.75 939.92 1370.08 C 946.82 1374.41 953.62 1378.16 960.92 1382.08 C 968.22 1386.00 975.39 1389.45 983.33 1392.67 C 991.27 1395.90 999.22 1398.56 1007.93 1401.07 C 1016.63 1403.59 1026.69 1404.34 1035.98 1406.02 C 1045.26 1407.70 1056.26 1408.55 1066.00 1409.00 C 1075.74 1409.45 1087.58 1408.19 1096.78 1406.78 C 1105.98 1405.37 1115.40 1403.02 1124.00 1401.00 C 1132.60 1398.98 1140.40 1395.93 1147.77 1391.77 C 1155.14 1387.62 1160.84 1383.15 1167.25 1378.25 C 1173.67 1373.36 1178.77 1368.20 1184.25 1362.25 C 1189.72 1356.29 1193.64 1350.23 1199.08 1344.08 C 1204.53 1337.94 1206.53 1329.97 1211.08 1323.08 C 1215.62 1316.19 1217.09 1307.36 1221.08 1300.08 C 1225.06 1292.79 1225.57 1282.38 1229.02 1275.02 C 1232.48 1267.67 1226.80 1254.36 1219.02 1253.98 C 1211.25 1253.60 1198.93 1253.78 1193.00 1259.00 Z"/>
</g>
<g fill="#6E3AFE" fill-opacity="1.00" stroke="None">
<path d="
M 610.00 1213.00 
C 643.03 1246.03 704.36 1239.81 744.00 1225.00
C 737.78 1224.33 732.77 1216.18 726.23 1214.77 C 719.70 1213.36 715.28 1206.70 708.70 1204.31 C 702.11 1201.91 696.01 1198.38 689.07 1195.93 C 682.14 1193.48 674.90 1192.22 667.22 1190.78 C 659.54 1189.34 648.06 1190.63 640.00 1190.00 C 631.95 1189.37 626.09 1195.04 619.75 1197.75 C 613.41 1200.47 612.70 1213.44 610.00 1213.00 Z"/>
</g>
<g fill="#7C35FE" fill-opacity="0.45" stroke="None">
<path d="
M 1439.00 1467.00 
C 1446.16 1461.29 1451.28 1455.17 1457.00 1448.00
C 1451.77 1451.60 1443.10 1461.73 1439.00 1467.00 Z"/>
</g>
<g fill="#643CFE" fill-opacity="0.42" stroke="None">
<path d="
M 149.00 1451.00 
C 153.83 1457.06 158.93 1462.16 165.00 1467.00
C 161.45 1462.43 153.71 1454.66 149.00 1451.00 Z"/>
</g>
</svg>